<svg id="_x31_px" height="512" viewBox="0 0 24 24" width="512" xmlns="http://www.w3.org/2000/svg"><path d="m17.5 24c-3.584 0-6.5-2.916-6.5-6.5s2.916-6.5 6.5-6.5 6.5 2.916 6.5 6.5-2.916 6.5-6.5 6.5zm0-12c-3.033 0-5.5 2.467-5.5 5.5s2.467 5.5 5.5 5.5 5.5-2.467 5.5-5.5-2.467-5.5-5.5-5.5z"/><path d="m17.5 20c-.276 0-.5-.224-.5-.5v-.263c0-.96.505-1.881 1.386-2.526.39-.286.614-.728.614-1.211 0-.827-.673-1.5-1.5-1.5s-1.5.673-1.5 1.5c0 .276-.224.5-.5.5s-.5-.224-.5-.5c0-1.378 1.122-2.5 2.5-2.5s2.5 1.122 2.5 2.5c0 .793-.382 1.547-1.023 2.018-.365.267-.977.845-.977 1.719v.263c0 .276-.224.5-.5.5z"/><circle cx="17.5" cy="21.5" r=".5"/><path d="m8.839 15.55c-.074 0-.149-.017-.221-.051-1.228-.605-2.553-.833-3.934-.682-.432.051-.866-.085-1.189-.373-.314-.28-.495-.682-.495-1.104v-11.75c0-.748.559-1.391 1.3-1.495 2.389-.353 4.642.311 6.7 1.982 2.058-1.67 4.309-2.337 6.703-1.981.738.103 1.297.746 1.297 1.494v6.91c0 .276-.224.5-.5.5s-.5-.224-.5-.5v-6.91c0-.252-.189-.47-.44-.505-2.25-.335-4.289.328-6.231 2.022-.188.164-.469.164-.657 0-1.942-1.695-3.977-2.357-6.229-2.023-.254.036-.443.253-.443.506v11.75c0 .139.057.266.16.357.11.098.257.144.412.126 1.576-.175 3.086.087 4.489.778.248.122.349.422.228.67-.088.176-.265.279-.45.279z"/><path d="m21.5 10c-.276 0-.5-.224-.5-.5v-6c0-.276-.224-.5-.5-.5h-2c-.276 0-.5-.224-.5-.5s.224-.5.5-.5h2c.827 0 1.5.673 1.5 1.5v6c0 .276-.224.5-.5.5z"/><path d="m8.5 17h-7c-.827 0-1.5-.673-1.5-1.5v-12c0-.812.669-1.485 1.491-1.5h2.009c.276 0 .5.224.5.5s-.224.5-.5.5h-2c-.271.005-.5.229-.5.5v12c0 .276.224.5.5.5h7c.276 0 .5.224.5.5s-.224.5-.5.5z"/><path d="m11 12c-.276 0-.5-.224-.5-.5v-9c0-.276.224-.5.5-.5s.5.224.5.5v9c0 .276-.224.5-.5.5z"/></svg>