<?xml version="1.0"?>
<svg xmlns="http://www.w3.org/2000/svg" viewBox="0 0 512 512" width="512" height="512"><g id="Out_line" data-name="Out line"><rect x="328" y="40" width="24" height="16"/><circle cx="368" cy="48" r="8"/><path d="M184,440a24,24,0,1,0,24,24A24.02718,24.02718,0,0,0,184,440Zm0,32a8,8,0,1,1,8-8A8.00917,8.00917,0,0,1,184,472Z"/><path d="M496,216a31.92522,31.92522,0,0,0-10.86792-24A31.97943,31.97943,0,0,0,464,136V56a40.04552,40.04552,0,0,0-40-40H280a40.04552,40.04552,0,0,0-40,40V192H224a8.00035,8.00035,0,0,0-5.65674,2.34277L104,308.686l-2.34326-2.34327a8.00182,8.00182,0,0,0-11.31348,0l-72,72,11.31348,11.31446L96,323.31348,236.68652,464l-18.34326,18.34277,11.31348,11.31446,24-24a8.00034,8.00034,0,0,0,0-11.31446L251.314,456l56-56H424a40.04552,40.04552,0,0,0,40-40V344a31.97943,31.97943,0,0,0,21.13208-56,31.934,31.934,0,0,0,0-48A31.92522,31.92522,0,0,0,496,216Zm-16-48a16.01833,16.01833,0,0,1-16,16h-8a16,16,0,0,1,0-32h8A16.01833,16.01833,0,0,1,480,168ZM280,261.96777a63.43771,63.43771,0,0,0,8-2.64526V264a8.00008,8.00008,0,0,0,8,8h24v24a8.00008,8.00008,0,0,0,8,8h80a8.00008,8.00008,0,0,0,8-8V176a8.00008,8.00008,0,0,0-8-8H384V144a8.00008,8.00008,0,0,0-8-8H296a8.00008,8.00008,0,0,0-8,8v48h-8V56h20.686l21.65722,21.65723A8.00035,8.00035,0,0,0,328,80h48a8.00035,8.00035,0,0,0,5.65674-2.34277L403.314,56H424V360H280ZM400,184V288H336V184Zm-32-16H328a8.00008,8.00008,0,0,0-8,8v16H304V152h64Zm-48,88H304v-6.082a64.4469,64.4469,0,0,0,16-18.99219ZM256,56a24.0275,24.0275,0,0,1,24-24H424a24.0275,24.0275,0,0,1,24,24v81.0127a31.794,31.794,0,0,0-8,3.29248V56a16.01833,16.01833,0,0,0-16-16H400a8.00035,8.00035,0,0,0-5.65674,2.34277L372.686,64H331.314L309.65674,42.34277A8.00035,8.00035,0,0,0,304,40H280a16.01833,16.01833,0,0,0-16,16V192h-8ZM240,444.686,115.314,320l112-112H311.3335A48.07871,48.07871,0,0,1,264,248a8.00035,8.00035,0,0,0-5.65674,2.34277l-40,40a8.00063,8.00063,0,0,0,0,11.31446,65.304,65.304,0,0,1,3.40528,88.67675l-3.82276,4.46,12.14844,10.4121,3.82275-4.46a81.40571,81.40571,0,0,0,12.33417-19.34716A39.99617,39.99617,0,0,0,280,400h4.686Zm0-141.66333a81.27642,81.27642,0,0,0-4.9624-6.74634L240,291.314ZM424,384H280a24.0275,24.0275,0,0,1-24-24V275.31372l8-8.00024V360a16.01833,16.01833,0,0,0,16,16H424a16.01833,16.01833,0,0,0,16-16V339.69482a31.794,31.794,0,0,0,8,3.29248V360A24.0275,24.0275,0,0,1,424,384Zm56-72a16.01833,16.01833,0,0,1-16,16h-8a16,16,0,0,1,0-32h8A16.01833,16.01833,0,0,1,480,312Zm0-48a16.01833,16.01833,0,0,1-16,16h-8a16,16,0,0,1,0-32h8A16.01833,16.01833,0,0,1,480,264Zm-24-32a16,16,0,0,1,0-32h8a16,16,0,0,1,0,32Z"/></g></svg>
